<svg width="100" height="100" viewBox="0 0 100 100" fill="none" xmlns="http://www.w3.org/2000/svg">
<path d="M67.3889 34.2167C67.3742 34.1892 67.3501 34.168 67.3209 34.1572C64.0815 32.6707 60.6631 31.6103 57.1512 31.0025C57.1196 30.9967 57.087 31.001 57.0581 31.0147C57.0291 31.0285 57.0051 31.051 56.9896 31.079C56.5238 31.9245 56.1009 32.7929 55.7226 33.681C51.935 33.1061 48.0822 33.1061 44.2945 33.681C43.9147 32.7907 43.486 31.9221 43.0105 31.079C42.9941 31.0518 42.97 31.03 42.9413 31.0164C42.9126 31.0028 42.8804 30.9979 42.849 31.0025C39.3309 31.6075 35.9065 32.668 32.6623 34.1572C32.6338 34.1692 32.61 34.1901 32.5942 34.2167C26.1149 43.9017 24.3377 53.3401 25.205 62.668C25.2075 62.6915 25.2148 62.7142 25.2265 62.7347C25.2382 62.7552 25.2541 62.773 25.2731 62.787C29.0473 65.5787 33.2681 67.7092 37.7556 69.0878C37.7879 69.0978 37.8224 69.0974 37.8545 69.0867C37.8865 69.0761 37.9144 69.0556 37.9342 69.0283C38.897 67.7175 39.7502 66.3297 40.4851 64.8788C40.4949 64.8588 40.5004 64.8371 40.5014 64.8148C40.5024 64.7926 40.4988 64.7705 40.4908 64.7497C40.4828 64.729 40.4707 64.7101 40.455 64.6942C40.4394 64.6784 40.4207 64.666 40.4001 64.6577C39.0519 64.1411 37.7469 63.5184 36.4972 62.7955C36.4751 62.782 36.4566 62.7634 36.4432 62.7412C36.4298 62.719 36.4219 62.694 36.4203 62.6682C36.4186 62.6423 36.4232 62.6164 36.4336 62.5927C36.444 62.569 36.46 62.5482 36.4801 62.5319C36.7437 62.3364 37.0073 62.1323 37.2539 61.9282C37.2757 61.9091 37.3024 61.8966 37.331 61.8921C37.3596 61.8876 37.3889 61.8913 37.4155 61.9027C45.5955 65.6356 54.4557 65.6356 62.5421 61.9027C62.5679 61.8901 62.5968 61.885 62.6254 61.888C62.6539 61.891 62.6811 61.902 62.7037 61.9197C62.9503 62.1238 63.2139 62.3364 63.4775 62.5319C63.4976 62.5482 63.5136 62.569 63.524 62.5927C63.5344 62.6164 63.539 62.6423 63.5373 62.6682C63.5357 62.694 63.5278 62.719 63.5144 62.7412C63.5011 62.7634 63.4825 62.782 63.4605 62.7955C62.214 63.5222 60.9084 64.1423 59.5575 64.6492C59.5369 64.6575 59.5182 64.6699 59.5026 64.6857C59.487 64.7016 59.4748 64.7204 59.4668 64.7412C59.4588 64.762 59.4552 64.7841 59.4562 64.8063C59.4572 64.8286 59.4627 64.8503 59.4725 64.8703C60.2202 66.314 61.0728 67.7008 62.0234 69.0198C62.0433 69.0471 62.0711 69.0676 62.1032 69.0782C62.1352 69.0889 62.1698 69.0893 62.202 69.0793C66.7025 67.7069 70.9355 65.576 74.7186 62.7785C74.7379 62.7649 74.7541 62.7472 74.7658 62.7266C74.7776 62.706 74.7847 62.6831 74.7866 62.6595C75.824 51.8861 73.035 42.5242 67.3889 34.2167ZM41.7095 56.9879C39.2437 56.9879 37.2199 54.7261 37.2199 51.9541C37.2199 49.1821 39.2096 46.9118 41.7095 46.9118C44.235 46.9118 46.2417 49.1906 46.1992 51.9456C46.1992 54.7261 44.2095 56.9879 41.7095 56.9879ZM58.3246 56.9879C55.8587 56.9879 53.835 54.7261 53.835 51.9541C53.835 49.1821 55.8162 46.9118 58.3246 46.9118C60.85 46.9118 62.8567 49.1906 62.8142 51.9456C62.8142 54.7261 60.8415 56.9879 58.3246 56.9879Z" fill="white"/>
</svg>
