<svg width="100" height="100" viewBox="0 0 100 100" fill="none" xmlns="http://www.w3.org/2000/svg">
<path d="M41.7238 65.254C41.7238 65.4556 41.4919 65.6169 41.1996 65.6169C40.8669 65.6471 40.6351 65.4858 40.6351 65.254C40.6351 65.0524 40.8669 64.8911 41.1593 64.8911C41.4617 64.8608 41.7238 65.0221 41.7238 65.254ZM38.5887 64.8003C38.5181 65.002 38.7198 65.2338 39.0222 65.2943C39.2843 65.3951 39.5867 65.2943 39.6472 65.0927C39.7077 64.8911 39.5161 64.6592 39.2137 64.5685C38.9516 64.4979 38.6593 64.5987 38.5887 64.8003ZM43.0444 64.629C42.752 64.6995 42.5504 64.8911 42.5806 65.1229C42.6109 65.3245 42.873 65.4556 43.1754 65.385C43.4677 65.3145 43.6694 65.1229 43.6391 64.9213C43.6089 64.7298 43.3367 64.5987 43.0444 64.629ZM49.6774 26C35.6956 26 25 36.6149 25 50.5967C25 61.7762 32.0363 71.3427 42.0867 74.7096C43.377 74.9415 43.8306 74.1451 43.8306 73.4898C43.8306 72.8648 43.8004 69.4173 43.8004 67.3003C43.8004 67.3003 36.744 68.8124 35.2621 64.2963C35.2621 64.2963 34.1129 61.3628 32.4597 60.6068C32.4597 60.6068 30.1512 59.0241 32.621 59.0544C32.621 59.0544 35.131 59.256 36.5121 61.6552C38.7198 65.5463 42.4194 64.4274 43.8609 63.762C44.0927 62.1491 44.748 61.0302 45.4738 60.3649C39.8387 59.7399 34.1532 58.9233 34.1532 49.2258C34.1532 46.4536 34.9194 45.0625 36.5323 43.2883C36.2702 42.633 35.4133 39.9314 36.7944 36.4435C38.9012 35.7883 43.75 39.1653 43.75 39.1653C45.7661 38.6008 47.9335 38.3084 50.0806 38.3084C52.2278 38.3084 54.3952 38.6008 56.4113 39.1653C56.4113 39.1653 61.2601 35.7782 63.3669 36.4435C64.748 39.9415 63.8911 42.633 63.629 43.2883C65.2419 45.0725 66.2298 46.4637 66.2298 49.2258C66.2298 58.9536 60.2923 59.7298 54.6573 60.3649C55.5847 61.1612 56.371 62.6733 56.371 65.0423C56.371 68.4394 56.3407 72.6431 56.3407 73.4697C56.3407 74.1249 56.8044 74.9213 58.0847 74.6894C68.1653 71.3427 75 61.7762 75 50.5967C75 36.6149 63.6593 26 49.6774 26ZM34.7984 60.7681C34.6673 60.8689 34.6976 61.1007 34.869 61.2923C35.0302 61.4536 35.2621 61.5241 35.3931 61.3931C35.5242 61.2923 35.494 61.0604 35.3226 60.8689C35.1613 60.7076 34.9294 60.637 34.7984 60.7681ZM33.7097 59.9516C33.6391 60.0826 33.7399 60.2439 33.9415 60.3447C34.1028 60.4455 34.3044 60.4153 34.375 60.2741C34.4456 60.1431 34.3448 59.9818 34.1431 59.881C33.9415 59.8205 33.7802 59.8507 33.7097 59.9516ZM36.9758 63.5403C36.8145 63.6713 36.875 63.9737 37.1069 64.1653C37.3387 64.3971 37.631 64.4274 37.7621 64.2661C37.8931 64.135 37.8327 63.8326 37.631 63.6411C37.4093 63.4092 37.1069 63.379 36.9758 63.5403ZM35.8266 62.0584C35.6653 62.1592 35.6653 62.4213 35.8266 62.6532C35.9879 62.885 36.2601 62.9858 36.3911 62.885C36.5524 62.754 36.5524 62.4919 36.3911 62.26C36.25 62.0282 35.9879 61.9274 35.8266 62.0584Z" fill="white"/>
</svg>
