<svg width="100" height="100" viewBox="0 0 100 100" fill="none" xmlns="http://www.w3.org/2000/svg">
<path d="M50 75C63.8071 75 75 63.8071 75 50C75 36.1929 63.8071 25 50 25C36.1929 25 25 36.1929 25 50C25 63.8071 36.1929 75 50 75ZM45.8422 55.0849L57.4343 44.624C57.9431 44.1724 57.3232 43.9522 56.6478 44.3618L42.3409 53.3878L36.1611 51.459C34.8266 51.0504 34.817 50.1333 36.4607 49.474L60.542 40.1884C61.6419 39.6891 62.7034 40.4526 62.2835 42.1359L58.1825 61.4616C57.8961 62.8349 57.0664 63.1633 55.9167 62.529L49.6695 57.9135L46.6667 60.8333C46.3178 61.1725 46.0417 61.4583 45.4167 61.4583L45.8422 55.0849Z" fill="white"/>
</svg>
