<svg width="50" height="50" viewBox="0 0 50 50" fill="none" xmlns="http://www.w3.org/2000/svg">
<g clip-path="url(#clip0_5_166)">
<mask id="mask0_5_166" style="mask-type:alpha" maskUnits="userSpaceOnUse" x="0" y="0" width="50" height="50">
<path d="M25 50C38.8071 50 50 38.8071 50 25C50 11.1929 38.8071 0 25 0C11.1929 0 0 11.1929 0 25C0 38.8071 11.1929 50 25 50Z" fill="#C4C4C4"/>
</mask>
<g mask="url(#mask0_5_166)">
<path d="M37.2236 10.7764L11.0607 36.9393C10.4749 37.5251 10.4749 38.4749 11.0607 39.0607C11.6464 39.6464 12.5962 39.6464 13.182 39.0607L39.3449 12.8977C39.9307 12.3119 39.9307 11.3622 39.3449 10.7764C38.7591 10.1906 37.8094 10.1906 37.2236 10.7764Z" fill="#C3F9FF"/>
<path d="M39.2236 37.2236L13.0607 11.0607C12.4749 10.4749 11.5251 10.4749 10.9393 11.0607C10.3536 11.6464 10.3536 12.5962 10.9393 13.182L37.1023 39.3449C37.6881 39.9307 38.6378 39.9307 39.2236 39.3449C39.8094 38.7591 39.8094 37.8094 39.2236 37.2236Z" fill="#C3F9FF"/>
</g>
</g>
<defs>
<clipPath id="clip0_5_166">
<rect width="50" height="50" fill="white"/>
</clipPath>
</defs>
</svg>
