<svg width="50" height="50" viewBox="0 0 50 50" fill="none" xmlns="http://www.w3.org/2000/svg">
<rect width="50" height="50" fill="#9391F7"/>
<mask id="mask0_16_48" style="mask-type:luminance" maskUnits="userSpaceOnUse" x="6" y="6" width="38" height="38">
<path d="M6 6H44V44H6V6Z" fill="white"/>
</mask>
<g mask="url(#mask0_16_48)">
<path d="M44 6H6V44H44V6Z" fill="#9391F7"/>
<path d="M21.6366 31.3333C23.06 31.3333 24.2127 30.2282 24.2127 28.8633C24.2127 27.4985 23.06 26.3933 21.6366 26.3933C20.2132 26.3933 19.0605 27.4985 19.0605 28.8633C19.0605 30.2282 20.2132 31.3333 21.6366 31.3333ZM28.3721 31.3333C29.794 31.3333 30.9482 30.2282 30.9482 28.8633C30.9482 27.4985 29.794 26.3933 28.3705 26.3933C26.9471 26.3933 25.7945 27.4985 25.7945 28.8633C25.7945 30.2282 26.9487 31.3333 28.3705 31.3333" fill="white"/>
<path d="M25.0004 18.6666C18.0037 18.6666 12.3322 24.2083 12.3337 31.0404H15.5701C15.5701 25.9199 19.758 21.7684 25.0004 21.7684C30.2413 21.7684 34.4308 25.9199 34.4308 31.0404H37.6671C37.6671 24.2083 31.9956 18.6666 25.0004 18.6666Z" fill="white"/>
</g>
</svg>
