<svg width="50" height="50" viewBox="0 0 50 50" fill="none" xmlns="http://www.w3.org/2000/svg">
<g clip-path="url(#clip0_16_48)">
<mask id="mask0_16_48" style="mask-type:luminance" maskUnits="userSpaceOnUse" x="0" y="0" width="50" height="50">
<path d="M0 0H50V50H0V0Z" fill="white"/>
</mask>
<g mask="url(#mask0_16_48)">
<path d="M50 0H0V50H50V0Z" fill="#9391F7"/>
<path d="M20.575 33.3333C22.4479 33.3333 23.9646 31.8792 23.9646 30.0833C23.9646 28.2875 22.4479 26.8333 20.575 26.8333C18.7021 26.8333 17.1854 28.2875 17.1854 30.0833C17.1854 31.8792 18.7021 33.3333 20.575 33.3333ZM29.4375 33.3333C31.3083 33.3333 32.8271 31.8792 32.8271 30.0833C32.8271 28.2875 31.3083 26.8333 29.4354 26.8333C27.5625 26.8333 26.0458 28.2875 26.0458 30.0833C26.0458 31.8792 27.5646 33.3333 29.4354 33.3333" fill="white"/>
<path d="M25 16.6667C15.7938 16.6667 8.33126 23.9583 8.33334 32.9479H12.5917C12.5917 26.2104 18.1021 20.7479 25 20.7479C31.8958 20.7479 37.4083 26.2104 37.4083 32.9479H41.6667C41.6667 23.9583 34.2042 16.6667 25 16.6667Z" fill="white"/>
</g>
</g>
<defs>
<clipPath id="clip0_16_48">
<rect width="50" height="50" fill="white"/>
</clipPath>
</defs>
</svg>
