<svg width="50" height="50" viewBox="0 0 50 50" fill="none" xmlns="http://www.w3.org/2000/svg">
<g clip-path="url(#clip0_14_28)">
<path d="M25 50C38.8071 50 50 38.8071 50 25C50 11.1929 38.8071 0 25 0C11.1929 0 0 11.1929 0 25C0 38.8071 11.1929 50 25 50Z" fill="#2081E2"/>
<path d="M12.334 25.84L12.442 25.6705L18.945 15.4965C18.9666 15.4628 18.9969 15.4356 19.0327 15.4177C19.0686 15.3997 19.1085 15.3918 19.1485 15.3948C19.1884 15.3977 19.2268 15.4113 19.2596 15.4342C19.2925 15.4572 19.3185 15.4885 19.335 15.525C20.4215 17.96 21.359 20.988 20.92 22.8735C20.7325 23.649 20.219 24.6995 19.641 25.6705C19.566 25.812 19.484 25.9505 19.397 26.084C19.3766 26.1143 19.349 26.139 19.3168 26.156C19.2845 26.173 19.2485 26.1818 19.212 26.1815H12.524C12.344 26.1815 12.239 25.9865 12.334 25.84Z" fill="white"/>
<path d="M41.322 27.7305V29.3405C41.322 29.4335 41.2655 29.5155 41.1835 29.5515C40.68 29.7675 38.9565 30.5585 38.24 31.555C36.411 34.1 35.014 37.74 31.8905 37.74H18.8605C14.2425 37.74 10.5 33.985 10.5 29.351V29.2025C10.5 29.079 10.6 28.979 10.7235 28.979H17.9875C18.131 28.979 18.2365 29.1125 18.2235 29.254C18.1724 29.7342 18.2626 30.2189 18.483 30.6485C18.6942 31.0757 19.0207 31.4354 19.4255 31.6868C19.8303 31.9383 20.2974 32.0715 20.774 32.0715H24.37V29.264H20.815C20.7734 29.2635 20.7327 29.2516 20.6973 29.2297C20.6619 29.2078 20.6332 29.1767 20.6141 29.1397C20.5951 29.1027 20.5865 29.0612 20.5893 29.0196C20.5921 28.9781 20.6062 28.9381 20.63 28.904C20.669 28.845 20.7125 28.784 20.7585 28.714C21.2223 28.0464 21.6545 27.3573 22.0535 26.649C22.3795 26.079 22.6955 25.47 22.9495 24.859C23.001 24.7485 23.042 24.6355 23.083 24.525C23.1525 24.33 23.2245 24.1475 23.276 23.965C23.327 23.811 23.3685 23.649 23.4095 23.4975C23.53 22.9785 23.5815 22.429 23.5815 21.859C23.5815 21.6355 23.5715 21.4015 23.5505 21.178C23.5405 20.934 23.5095 20.69 23.4785 20.446C23.4546 20.2272 23.4213 20.0094 23.3785 19.7935C23.325 19.4652 23.2566 19.1396 23.1735 18.8175L23.145 18.6945C23.083 18.471 23.032 18.258 22.96 18.0345C22.7612 17.3504 22.5332 16.6751 22.2765 16.0105C22.1865 15.756 22.084 15.512 21.9815 15.268C21.83 14.9005 21.6755 14.567 21.5345 14.251C21.4625 14.107 21.401 13.976 21.3395 13.8425C21.2709 13.6923 21.1997 13.5433 21.126 13.3955C21.0745 13.2855 21.0155 13.1825 20.9745 13.0795L20.535 12.268C20.5212 12.2434 20.515 12.2154 20.5171 12.1873C20.5193 12.1592 20.5296 12.1324 20.5469 12.1102C20.5642 12.088 20.5877 12.0714 20.6144 12.0624C20.6411 12.0535 20.6698 12.0527 20.697 12.06L23.4455 12.805H23.453C23.458 12.805 23.461 12.8075 23.463 12.8075L23.8255 12.9075L24.2235 13.0205L24.37 13.0615V11.428C24.37 10.6395 25.002 10 25.7825 10C26.173 10 26.5275 10.159 26.782 10.4185C27.036 10.6785 27.1955 11.0325 27.1955 11.4285V13.853L27.488 13.935C27.512 13.9425 27.5346 13.9538 27.555 13.9685C27.627 14.0225 27.73 14.102 27.8605 14.1995C27.9635 14.2815 28.074 14.382 28.2075 14.4845C28.472 14.698 28.7875 14.9725 29.1345 15.2885C29.227 15.3685 29.317 15.4505 29.3995 15.5325C29.8973 15.9906 30.3728 16.4723 30.8245 16.976C30.9585 17.1275 31.0895 17.2815 31.223 17.4435C31.3565 17.608 31.498 17.7695 31.621 17.9315C31.783 18.1475 31.9575 18.371 32.109 18.6045C32.181 18.715 32.263 18.828 32.3325 18.9385C32.5275 19.2335 32.6995 19.5395 32.864 19.845C32.9335 19.9865 33.0055 20.1405 33.067 20.292C33.2495 20.7005 33.393 21.117 33.4855 21.5325C33.514 21.6225 33.5345 21.72 33.5445 21.8075V21.828C33.5755 21.9515 33.586 22.0825 33.596 22.216C33.6386 22.6443 33.6143 23.0767 33.524 23.4975C33.4842 23.6794 33.4337 23.8587 33.3725 24.0345C33.311 24.2095 33.2495 24.3915 33.1695 24.5635C33.0147 24.9275 32.8301 25.278 32.6175 25.6115C32.548 25.7345 32.466 25.8655 32.3835 25.989C32.2935 26.12 32.2015 26.2435 32.119 26.364C32.006 26.518 31.8855 26.68 31.762 26.824C31.652 26.9755 31.5385 27.127 31.4155 27.2605C31.2505 27.4577 31.0809 27.6511 30.907 27.8405C30.804 27.9615 30.6935 28.085 30.5805 28.1955C30.4705 28.3185 30.357 28.429 30.2545 28.532C30.0825 28.704 29.9385 28.8375 29.818 28.948L29.5355 29.2075C29.4935 29.244 29.4397 29.2641 29.384 29.264H27.195V32.0715H29.9485C30.5627 32.0712 31.1565 31.8515 31.623 31.452C31.785 31.311 32.491 30.6995 33.326 29.7775C33.354 29.7463 33.3905 29.7241 33.431 29.7135L41.0365 27.5145C41.0698 27.5052 41.1049 27.5037 41.1389 27.5101C41.1729 27.5166 41.205 27.5309 41.2326 27.5518C41.2602 27.5727 41.2826 27.5997 41.298 27.6307C41.3134 27.6617 41.322 27.6959 41.322 27.7305Z" fill="white"/>
</g>
<defs>
<clipPath id="clip0_14_28">
<rect width="50" height="50" fill="white"/>
</clipPath>
</defs>
</svg>
