<svg width="50" height="50" viewBox="0 0 50 50" fill="none" xmlns="http://www.w3.org/2000/svg">
<g clip-path="url(#clip0_16_28)">
<mask id="mask0_16_28" style="mask-type:luminance" maskUnits="userSpaceOnUse" x="0" y="0" width="50" height="50">
<path d="M0 0H50V50H0V0Z" fill="white"/>
</mask>
<g mask="url(#mask0_16_28)">
<path d="M50 0H0V50H50V0Z" fill="url(#paint0_linear_16_28)"/>
<path d="M30.8204 28.7882L36.511 25.541C36.6595 25.4574 36.783 25.3358 36.8689 25.1888C36.9548 25.0417 37.0001 24.8744 37 24.704V18.2095C36.9996 18.0397 36.9541 17.873 36.8682 17.7265C36.7823 17.58 36.659 17.4589 36.511 17.3756L30.8204 14.1283C30.6717 14.0442 30.5038 14 30.3329 14C30.1621 14 29.9941 14.0442 29.8454 14.1283L24.1488 17.3741C24.0009 17.4577 23.8778 17.5791 23.7922 17.7259C23.7065 17.8727 23.6614 18.0396 23.6613 18.2095V29.8141L19.6686 32.0895L15.6773 29.8141V25.2605L19.6686 22.9852L22.3009 24.4865V21.4358L20.1561 20.2119C20.0074 20.1277 19.8394 20.0835 19.6686 20.0835C19.4977 20.0835 19.3298 20.1277 19.1811 20.2119L13.4875 23.4591C13.3395 23.5428 13.2165 23.6642 13.1308 23.811C13.0452 23.9577 13 24.1246 13 24.2946V30.7891C13 31.1325 13.186 31.452 13.4875 31.6245L19.1811 34.8718C19.4811 35.0427 19.8561 35.0427 20.1561 34.8718L25.8497 31.6245C25.9976 31.5409 26.1207 31.4195 26.2063 31.2727C26.292 31.1259 26.3371 30.959 26.3372 30.7891V19.1815L26.4092 19.1425L30.3284 16.9076L34.3197 19.1815V23.7351L30.3284 26.0104L27.6991 24.512V27.5673L29.8394 28.7882C29.9883 28.8726 30.1565 28.917 30.3277 28.917C30.4988 28.917 30.667 28.8726 30.8159 28.7882H30.8204Z" fill="white"/>
</g>
</g>
<defs>
<linearGradient id="paint0_linear_16_28" x1="8.225" y1="34.6187" x2="40.0354" y2="15.9271" gradientUnits="userSpaceOnUse">
<stop stop-color="#A726C1"/>
<stop offset="0.88" stop-color="#803BDF"/>
<stop offset="1" stop-color="#7B3FE4"/>
</linearGradient>
<clipPath id="clip0_16_28">
<rect width="50" height="50" fill="white"/>
</clipPath>
</defs>
</svg>
