<svg width="50" height="50" viewBox="0 0 50 50" fill="none" xmlns="http://www.w3.org/2000/svg">
<g clip-path="url(#clip0_16_28)">
<mask id="mask0_16_28" style="mask-type:luminance" maskUnits="userSpaceOnUse" x="0" y="0" width="50" height="50">
<path d="M0 0H50V50H0V0Z" fill="white"/>
</mask>
<g mask="url(#mask0_16_28)">
<path d="M50 0H0V50H50V0Z" fill="url(#paint0_linear_16_28)"/>
<path d="M33.0833 30.9583L40.9875 26.4479C41.1937 26.3318 41.3652 26.163 41.4846 25.9587C41.6039 25.7544 41.6668 25.522 41.6667 25.2854V16.2646C41.666 16.0287 41.6029 15.7972 41.4835 15.5937C41.3642 15.3902 41.1931 15.222 40.9875 15.1062L33.0833 10.5958C32.8768 10.479 32.6435 10.4176 32.4063 10.4176C32.169 10.4176 31.9357 10.479 31.7292 10.5958L23.8167 15.1042C23.6112 15.2203 23.4402 15.389 23.3213 15.5929C23.2023 15.7967 23.1396 16.0285 23.1396 16.2646V32.3833L17.5938 35.5438L12.05 32.3833V26.0583L17.5938 22.8979L21.25 24.9833V20.7458L18.2708 19.0458C18.0643 18.929 17.831 18.8676 17.5938 18.8676C17.3565 18.8676 17.1232 18.929 16.9167 19.0458L9.00834 23.5563C8.80286 23.6724 8.63191 23.8411 8.51296 24.0449C8.394 24.2488 8.33129 24.4806 8.33125 24.7167V33.7375C8.33125 34.2146 8.58959 34.6583 9.00834 34.8979L16.9167 39.4083C17.3333 39.6458 17.8542 39.6458 18.2708 39.4083L26.1792 34.8979C26.3846 34.7817 26.5556 34.6131 26.6745 34.4092C26.7935 34.2053 26.8562 33.9735 26.8563 33.7375V17.6146L26.9563 17.5604L32.4 14.4563L37.9437 17.6146V23.9396L32.4 27.1L28.7479 25.0187V29.2625L31.7208 30.9583C31.9276 31.0756 32.1613 31.1372 32.399 31.1372C32.6367 31.1372 32.8703 31.0756 33.0771 30.9583H33.0833Z" fill="white"/>
</g>
</g>
<defs>
<linearGradient id="paint0_linear_16_28" x1="8.225" y1="34.6187" x2="40.0354" y2="15.9271" gradientUnits="userSpaceOnUse">
<stop stop-color="#A726C1"/>
<stop offset="0.88" stop-color="#803BDF"/>
<stop offset="1" stop-color="#7B3FE4"/>
</linearGradient>
<clipPath id="clip0_16_28">
<rect width="50" height="50" fill="white"/>
</clipPath>
</defs>
</svg>
