<svg width="50" height="50" viewBox="0 0 50 50" fill="none" xmlns="http://www.w3.org/2000/svg">
<g clip-path="url(#clip0_16_56)">
<mask id="mask0_16_56" style="mask-type:luminance" maskUnits="userSpaceOnUse" x="0" y="0" width="50" height="50">
<path d="M0 0H50V50H0V0Z" fill="white"/>
</mask>
<g mask="url(#mask0_16_56)">
<path d="M50 0H0V50H50V0Z" fill="#F50DB4"/>
<path d="M34.6396 13.3708C34.6854 12.5833 34.7917 12.0646 35.0083 11.5896C35.0567 11.4705 35.116 11.3561 35.1854 11.2479C35.1709 11.3538 35.1429 11.4575 35.1021 11.5563C34.9458 12.0167 34.9208 12.6458 35.0292 13.3792C35.1667 14.3104 35.2437 14.4437 36.2292 15.4479C36.6917 15.9187 37.2292 16.5146 37.425 16.7687L37.7792 17.2333L37.425 16.9C36.9917 16.4958 35.9937 15.7042 35.775 15.5917C35.6271 15.5167 35.6042 15.5167 35.5125 15.6083C35.4292 15.6917 35.4104 15.8167 35.4 16.4083C35.3812 17.3312 35.2542 17.9229 34.95 18.5125C34.7875 18.8333 34.7604 18.7667 34.9083 18.4042C35.0208 18.1333 35.0333 18.0167 35.0312 17.1229C35.0312 15.3312 34.8167 14.8979 33.5625 14.1604C33.1842 13.9431 32.7963 13.7429 32.4 13.5604C32.2037 13.4826 32.0135 13.39 31.8312 13.2833C31.8667 13.2479 33.0896 13.6042 33.5812 13.7917C34.3125 14.0729 34.4354 14.1083 34.5229 14.075C34.5833 14.0542 34.6104 13.8792 34.6396 13.3708Z" fill="white"/>
<path d="M19.1792 10.7625C18.7458 10.6958 18.7271 10.6875 18.9292 10.6562C19.3229 10.5958 20.2458 10.6771 20.8833 10.8292C22.3708 11.1792 23.725 12.0792 25.1688 13.6792L25.5521 14.1042L26.1021 14.0167C28.4146 13.6479 30.7688 13.9417 32.7354 14.8458C33.2771 15.0958 34.1313 15.5896 34.2354 15.7167C34.2708 15.7583 34.3333 16.0188 34.375 16.2979C34.5208 17.2604 34.4479 18 34.1521 18.55C33.9896 18.8521 33.9813 18.9458 34.0896 19.2042C34.1408 19.3108 34.2213 19.4006 34.3216 19.4633C34.4219 19.526 34.538 19.559 34.6563 19.5583C35.1458 19.5583 35.6708 18.7729 35.9146 17.6792L36.0125 17.2438L36.2042 17.4604C37.2563 18.6479 38.0833 20.2646 38.225 21.4167L38.2625 21.7167L38.0854 21.4438C37.8329 21.0254 37.4915 20.6676 37.0854 20.3958C36.3771 19.9312 35.6313 19.7708 33.6521 19.6687C31.8667 19.575 30.8563 19.4229 29.8542 19.0979C28.1458 18.5458 27.2875 17.8083 25.2625 15.1646C24.3625 13.9917 23.8042 13.3417 23.2521 12.8188C21.9958 11.6313 20.7604 11.0063 19.1792 10.7625ZM20.0208 16.4479C19.1417 15.2417 18.5958 13.3917 18.7146 12.0104L18.75 11.5792L18.95 11.6146C19.3271 11.6833 19.9771 11.9229 20.2812 12.1083C21.1146 12.6125 21.4771 13.275 21.8438 14.9792C21.9521 15.4792 22.0938 16.0438 22.1583 16.2354C22.2625 16.5438 22.6583 17.2625 22.9813 17.7292C23.2104 18.0646 23.0583 18.225 22.5458 18.1792C21.7646 18.1083 20.7063 17.3813 20.0229 16.4458M33.5688 25.4292C29.4521 23.7813 28 22.3479 28 19.9333C28 19.5792 28.0125 19.2875 28.0292 19.2875C28.0438 19.2875 28.2021 19.4042 28.3833 19.5479C29.2167 20.2146 30.1542 20.4979 32.7417 20.875C34.2646 21.0958 35.1229 21.2729 35.9125 21.5354C38.4271 22.3646 39.9812 24.0458 40.3521 26.3375C40.4604 27.0042 40.3979 28.2542 40.2229 28.9104C40.0854 29.4312 39.6646 30.3687 39.5521 30.4042C39.5208 30.4146 39.4896 30.2958 39.4833 30.1354C39.4417 29.275 39.0042 28.4375 38.2687 27.8083C37.4354 27.0958 36.3125 26.5271 33.5688 25.4292ZM30.6792 26.1146C30.628 25.8223 30.5612 25.533 30.4792 25.2479L30.375 24.9354L30.5708 25.1542C30.8417 25.4563 31.0542 25.8417 31.2354 26.3562C31.3729 26.7479 31.3875 26.8646 31.3875 27.5021C31.3875 28.1271 31.3667 28.2583 31.2417 28.6125C31.0621 29.1322 30.7639 29.603 30.3708 29.9875C29.6208 30.7479 28.6521 31.1708 27.2563 31.3458C27.0146 31.375 26.3063 31.4271 25.6854 31.4583C24.1188 31.5417 23.0875 31.7083 22.1604 32.0312C22.0762 32.0664 21.9869 32.0875 21.8958 32.0937C21.8583 32.0562 22.4896 31.6833 23.0104 31.4333C23.7458 31.0792 24.4771 30.8896 26.1146 30.6167C26.9271 30.4833 27.7604 30.3208 27.9729 30.2562C29.9792 29.6437 31.0083 28.0688 30.6792 26.1146Z" fill="white"/>
<path d="M32.5667 29.45C32.0187 28.2792 31.8937 27.15 32.1917 26.0958C32.225 25.9833 32.2771 25.8917 32.3083 25.8917C32.3396 25.8917 32.4687 25.9604 32.5958 26.0458C32.8458 26.2146 33.3521 26.5 34.7 27.2292C36.3812 28.1417 37.3396 28.8479 37.9917 29.6542C38.5625 30.3604 38.9167 31.1646 39.0854 32.1458C39.1833 32.7021 39.1271 34.0375 38.9812 34.5979C38.5312 36.3625 37.4812 37.7479 35.9812 38.5563C35.7625 38.675 35.5646 38.7729 35.5437 38.7729C35.5229 38.7729 35.6021 38.5708 35.7208 38.3229C36.225 37.275 36.2833 36.2563 35.9021 35.1208C35.6687 34.4271 35.1937 33.5792 34.2312 32.1458C33.1146 30.4792 32.8417 30.0375 32.5646 29.45M17.0979 35.7625C18.625 34.4771 20.5271 33.5667 22.2583 33.2854C23.1524 33.1711 24.0592 33.2063 24.9417 33.3896C26.05 33.6729 27.0396 34.3042 27.5562 35.0563C28.0604 35.7917 28.275 36.4313 28.5 37.8583C28.5896 38.4208 28.6875 38.9854 28.7146 39.1146C28.8833 39.8542 29.2146 40.4438 29.6208 40.7396C30.2667 41.2125 31.3812 41.2396 32.4792 40.8167C32.5934 40.7646 32.7138 40.7275 32.8375 40.7063C32.8792 40.7438 32.325 41.1125 31.9354 41.3063C31.4753 41.5488 30.9618 41.6727 30.4417 41.6667C29.4375 41.6667 28.6042 41.1583 27.9083 40.1229C27.6533 39.6851 27.4251 39.2322 27.225 38.7667C26.4896 37.1 26.1271 36.5917 25.275 36.0375C24.5312 35.5521 23.575 35.4667 22.8542 35.8167C21.9083 36.2792 21.6458 37.4813 22.3229 38.2438C22.5917 38.5458 23.0937 38.8063 23.5042 38.8583C23.6829 38.8822 23.8647 38.8674 24.0373 38.815C24.2099 38.7625 24.3692 38.6737 24.5045 38.5544C24.6397 38.4351 24.7478 38.2882 24.8215 38.1235C24.8951 37.9589 24.9325 37.7804 24.9312 37.6C24.9312 37.1 24.7396 36.8146 24.2521 36.5958C23.5854 36.2958 22.8708 36.6458 22.875 37.2667C22.875 37.5313 22.9917 37.6979 23.2583 37.8188C23.4312 37.8958 23.4354 37.9021 23.2958 37.8729C22.6833 37.7479 22.5417 37.0146 23.0312 36.5292C23.6208 35.9458 24.8396 36.2042 25.2604 37C25.4354 37.3333 25.4542 38 25.3021 38.4021C24.9583 39.3021 23.9583 39.7771 22.9437 39.5188C22.2521 39.3438 21.9708 39.1542 21.1375 38.3C19.6917 36.8167 19.1292 36.5292 17.0417 36.2063L16.6417 36.1438L17.0979 35.7625Z" fill="white"/>
<path fill-rule="evenodd" clip-rule="evenodd" d="M10.3063 9.22083C15.1396 15.0542 18.4688 17.4625 18.8396 17.9708C19.1438 18.3917 19.0292 18.7687 18.5063 19.0646C18.1365 19.2535 17.7328 19.3668 17.3188 19.3979C16.9771 19.3979 16.8604 19.2667 16.8604 19.2667C16.6646 19.0792 16.5542 19.1125 15.5458 17.3312C14.688 15.9968 13.82 14.669 12.9417 13.3479C12.8667 13.2771 12.8688 13.2812 15.4021 17.7917C15.8125 18.7292 15.4854 19.075 15.4854 19.2083C15.4854 19.4812 15.4104 19.625 15.0708 20C14.5083 20.625 14.2583 21.3271 14.075 22.7812C13.8708 24.4083 13.2979 25.5604 11.7104 27.5292C10.7813 28.6812 10.6292 28.8937 10.3958 29.3583C10.1 29.9417 10.0188 30.2708 9.98543 31.0104C9.95001 31.7917 10.0188 32.2958 10.2583 33.0417C10.4667 33.6958 10.6875 34.1271 11.2479 34.9917C11.7313 35.7375 12.0104 36.2917 12.0104 36.5062C12.0104 36.6792 12.0438 36.6792 12.7938 36.5125C14.5875 36.1083 16.0438 35.4 16.8646 34.5333C17.3708 33.9937 17.4896 33.6979 17.4938 32.9604C17.4958 32.4792 17.4792 32.3771 17.3479 32.1C17.1354 31.65 16.7458 31.275 15.8896 30.6937C14.7708 29.9312 14.2917 29.3187 14.1604 28.4729C14.0521 27.7812 14.1771 27.2937 14.7979 26C15.4396 24.6625 15.5979 24.0937 15.7063 22.7458C15.775 21.8729 15.8729 21.5292 16.1229 21.2542C16.3854 20.9667 16.6229 20.8687 17.2708 20.7812C18.3292 20.6354 19.0042 20.3646 19.5583 19.8562C19.7792 19.6723 19.9573 19.4425 20.0804 19.1827C20.2034 18.9229 20.2684 18.6395 20.2708 18.3521L20.2958 17.8687L20.025 17.5562C19.0563 16.4271 9.65626 8.33333 9.59584 8.33333C9.58334 8.33333 9.90209 8.73333 10.3063 9.22083ZM12.5583 31.8937C12.6644 31.7068 12.6961 31.4867 12.6471 31.2774C12.598 31.0681 12.4719 30.885 12.2938 30.7646C11.9458 30.5354 11.4063 30.6437 11.4063 30.9417C11.4035 31.0306 11.459 31.1028 11.5729 31.1583C11.7646 31.2583 11.7792 31.3687 11.6271 31.5958C11.4729 31.825 11.4854 32.0271 11.6625 32.1646C11.9458 32.3854 12.35 32.2646 12.5583 31.8937ZM20.9625 21.0354C20.4667 21.1875 19.9833 21.7104 19.8333 22.2604C19.7417 22.5958 19.7938 23.1833 19.9313 23.3646C20.1521 23.6583 20.3646 23.7354 20.9438 23.7312C22.075 23.7229 23.0604 23.2417 23.1729 22.6375C23.2688 22.1417 22.8354 21.4562 22.2396 21.1562C21.8349 20.9917 21.3908 20.9497 20.9625 21.0354ZM22.2875 22.0646C22.4604 21.8187 22.3854 21.5521 22.0875 21.3708C21.5229 21.0271 20.6667 21.3125 20.6667 21.8437C20.6667 22.1083 21.1125 22.3958 21.5208 22.3958C21.7938 22.3958 22.1667 22.2333 22.2875 22.0646Z" fill="white"/>
</g>
</g>
<defs>
<clipPath id="clip0_16_56">
<rect width="50" height="50" fill="white"/>
</clipPath>
</defs>
</svg>
