<svg width="50" height="50" viewBox="0 0 50 50" fill="none" xmlns="http://www.w3.org/2000/svg">
<rect width="50" height="50" fill="#F50DB4"/>
<mask id="mask0_16_56" style="mask-type:luminance" maskUnits="userSpaceOnUse" x="6" y="6" width="38" height="38">
<path d="M6 6H44V44H6V6Z" fill="white"/>
</mask>
<g mask="url(#mask0_16_56)">
<path d="M44 6H6V44H44V6Z" fill="#F50DB4"/>
<path d="M32.326 16.1618C32.3609 15.5633 32.4416 15.1691 32.6063 14.8081C32.643 14.7175 32.6881 14.6306 32.7409 14.5484C32.7299 14.6289 32.7086 14.7077 32.6775 14.7827C32.5588 15.1327 32.5398 15.6108 32.6221 16.1682C32.7266 16.8759 32.7852 16.9772 33.5341 17.7404C33.8856 18.0982 34.2941 18.5511 34.443 18.7442L34.7121 19.0973L34.443 18.844C34.1136 18.5368 33.3552 17.9352 33.189 17.8497C33.0765 17.7927 33.0591 17.7927 32.9895 17.8623C32.9261 17.9257 32.9119 18.0207 32.904 18.4703C32.8897 19.1717 32.7931 19.6214 32.562 20.0695C32.4385 20.3133 32.4179 20.2626 32.5303 19.9871C32.6158 19.7813 32.6253 19.6927 32.6237 19.0134C32.6237 17.6517 32.4606 17.3224 31.5075 16.7619C31.2199 16.5968 30.9251 16.4446 30.624 16.3059C30.4747 16.2468 30.3302 16.1764 30.1917 16.0953C30.2186 16.0684 31.148 16.3392 31.5217 16.4817C32.0775 16.6954 32.1709 16.7223 32.2374 16.697C32.2833 16.6812 32.3039 16.5482 32.326 16.1618Z" fill="white"/>
<path d="M20.5762 14.1795C20.2469 14.1288 20.2327 14.1225 20.3862 14.0988C20.6855 14.0528 21.3869 14.1146 21.8714 14.2302C23.0019 14.4962 24.0311 15.1802 25.1283 16.3962L25.4197 16.7192L25.8377 16.6527C27.5952 16.3724 29.3843 16.5957 30.879 17.2828C31.2907 17.4728 31.9398 17.8481 32.019 17.9447C32.0459 17.9763 32.0934 18.1743 32.1251 18.3864C32.2359 19.1179 32.1805 19.68 31.9557 20.098C31.8322 20.3276 31.8258 20.3988 31.9082 20.5952C31.9471 20.6762 32.0083 20.7445 32.0845 20.7921C32.1607 20.8398 32.2489 20.8648 32.3388 20.8643C32.7109 20.8643 33.1099 20.2674 33.2952 19.4362L33.3696 19.1053L33.5152 19.2699C34.3148 20.1724 34.9434 21.4011 35.0511 22.2767L35.0796 22.5047L34.945 22.2973C34.7531 21.9793 34.4936 21.7074 34.185 21.5008C33.6467 21.1478 33.0798 21.0258 31.5757 20.9483C30.2187 20.877 29.4508 20.7614 28.6892 20.5144C27.3909 20.0948 26.7386 19.5343 25.1996 17.5251C24.5156 16.6337 24.0912 16.1397 23.6717 15.7423C22.7169 14.8398 21.778 14.3648 20.5762 14.1795ZM21.2159 18.5004C20.5477 17.5837 20.1329 16.1777 20.2232 15.1279L20.2501 14.8002L20.4021 14.8271C20.6887 14.8793 21.1827 15.0614 21.4138 15.2023C22.0472 15.5855 22.3227 16.089 22.6013 17.3842C22.6837 17.7642 22.7913 18.1933 22.8404 18.3389C22.9196 18.5733 23.2204 19.1195 23.4658 19.4742C23.64 19.7291 23.5244 19.851 23.1349 19.8162C22.5412 19.7623 21.7368 19.2098 21.2175 18.4988M31.5123 25.3262C28.3837 24.0738 27.2801 22.9844 27.2801 21.1493C27.2801 20.8802 27.2896 20.6585 27.3022 20.6585C27.3133 20.6585 27.4337 20.7472 27.5714 20.8564C28.2047 21.3631 28.9172 21.5784 30.8837 21.865C32.0412 22.0328 32.6935 22.1674 33.2936 22.3669C35.2047 22.9971 36.3858 24.2748 36.6676 26.0165C36.75 26.5232 36.7025 27.4732 36.5695 27.9719C36.465 28.3678 36.1452 29.0803 36.0597 29.1072C36.0359 29.1151 36.0122 29.0248 36.0074 28.9029C35.9757 28.249 35.6432 27.6125 35.0843 27.1343C34.451 26.5928 33.5976 26.1606 31.5123 25.3262ZM29.3162 25.8471C29.2773 25.625 29.2266 25.4051 29.1642 25.1884L29.0851 24.9509L29.2339 25.1172C29.4397 25.3468 29.6012 25.6397 29.739 26.0308C29.8435 26.3284 29.8546 26.4171 29.8546 26.9016C29.8546 27.3766 29.8387 27.4763 29.7437 27.7455C29.6072 28.1405 29.3806 28.4983 29.0819 28.7905C28.5119 29.3684 27.7757 29.6898 26.7148 29.8228C26.5312 29.845 25.9928 29.8846 25.521 29.9083C24.3303 29.9717 23.5466 30.0983 22.842 30.3438C22.778 30.3705 22.7101 30.3865 22.6409 30.3913C22.6124 30.3628 23.0922 30.0793 23.488 29.8893C24.0469 29.6202 24.6027 29.4761 25.8472 29.2687C26.4647 29.1673 27.098 29.0438 27.2595 28.9948C28.7842 28.5293 29.5664 27.3323 29.3162 25.8471Z" fill="white"/>
<path d="M30.7507 28.382C30.3343 27.4921 30.2393 26.634 30.4657 25.8328C30.4911 25.7473 30.5307 25.6776 30.5544 25.6776C30.5782 25.6776 30.6763 25.7299 30.7729 25.7948C30.9629 25.9231 31.3477 26.14 32.3721 26.6941C33.6498 27.3876 34.3782 27.9244 34.8737 28.5371C35.3076 29.0739 35.5767 29.6851 35.705 30.4308C35.7794 30.8536 35.7367 31.8685 35.6258 32.2944C35.2838 33.6355 34.4858 34.6884 33.3458 35.3027C33.1796 35.393 33.0292 35.4674 33.0133 35.4674C32.9975 35.4674 33.0577 35.3138 33.1479 35.1254C33.5311 34.329 33.5754 33.5547 33.2857 32.6918C33.1083 32.1646 32.7473 31.5201 32.0158 30.4308C31.1672 29.1641 30.9597 28.8285 30.7492 28.382M18.9945 33.1795C20.1551 32.2026 21.6007 31.5106 22.9164 31.2969C23.5959 31.21 24.2851 31.2367 24.9557 31.3761C25.7981 31.5914 26.5502 32.0711 26.9428 32.6427C27.326 33.2016 27.4891 33.6877 27.6601 34.7723C27.7282 35.1998 27.8026 35.6289 27.8232 35.7271C27.9514 36.2891 28.2032 36.7372 28.5119 36.9621C29.0027 37.3215 29.8498 37.3421 30.6842 37.0206C30.771 36.9811 30.8626 36.9529 30.9566 36.9367C30.9882 36.9652 30.5671 37.2455 30.271 37.3927C29.9213 37.5771 29.5311 37.6712 29.1357 37.6666C28.3726 37.6666 27.7392 37.2803 27.2104 36.4934C27.0166 36.1607 26.8431 35.8164 26.6911 35.4626C26.1322 34.196 25.8567 33.8096 25.2091 33.3885C24.6438 33.0196 23.9171 32.9546 23.3692 33.2206C22.6504 33.5721 22.4509 34.4857 22.9655 35.0652C23.1697 35.2948 23.5513 35.4927 23.8632 35.5323C23.9991 35.5504 24.1373 35.5392 24.2684 35.4993C24.3996 35.4595 24.5207 35.392 24.6235 35.3013C24.7263 35.2106 24.8084 35.099 24.8644 34.9739C24.9203 34.8487 24.9488 34.713 24.9478 34.576C24.9478 34.196 24.8022 33.9791 24.4317 33.8128C23.925 33.5848 23.3819 33.8508 23.3851 34.3226C23.3851 34.5237 23.4737 34.6504 23.6764 34.7422C23.8078 34.8008 23.811 34.8056 23.7049 34.7834C23.2394 34.6884 23.1317 34.1311 23.5038 33.7621C23.9519 33.3188 24.8782 33.5151 25.198 34.12C25.331 34.3733 25.3452 34.88 25.2297 35.1856C24.9684 35.8696 24.2084 36.2306 23.4373 36.0342C22.9117 35.9012 22.6979 35.7571 22.0646 35.108C20.9657 33.9806 20.5382 33.7621 18.9517 33.5167L18.6477 33.4692L18.9945 33.1795Z" fill="white"/>
<path fill-rule="evenodd" clip-rule="evenodd" d="M13.8328 13.0078C17.5061 17.4412 20.0363 19.2715 20.3181 19.6578C20.5493 19.9777 20.4622 20.2642 20.0648 20.4891C19.7837 20.6326 19.4769 20.7188 19.1623 20.7424C18.9026 20.7424 18.8139 20.6427 18.8139 20.6427C18.6651 20.5002 18.5812 20.5255 17.8148 19.1717C17.1629 18.1575 16.5032 17.1484 15.8357 16.1444C15.7787 16.0906 15.7803 16.0937 17.7056 19.5217C18.0175 20.2342 17.7689 20.497 17.7689 20.5983C17.7689 20.8057 17.7119 20.915 17.4538 21.2C17.0263 21.675 16.8363 22.2086 16.697 23.3137C16.5418 24.5503 16.1064 25.4259 14.8999 26.9221C14.1938 27.7977 14.0782 27.9592 13.9008 28.3123C13.676 28.7556 13.6143 29.0058 13.5889 29.5679C13.562 30.1616 13.6143 30.5448 13.7963 31.1116C13.9547 31.6088 14.1225 31.9366 14.5484 32.5936C14.9158 33.1605 15.1279 33.5816 15.1279 33.7447C15.1279 33.8761 15.1533 33.8761 15.7233 33.7495C17.0865 33.4423 18.1933 32.904 18.8171 32.2453C19.2018 31.8352 19.2921 31.6104 19.2953 31.0499C19.2968 30.6841 19.2842 30.6066 19.1844 30.396C19.0229 30.054 18.7268 29.769 18.0761 29.3272C17.2258 28.7477 16.8617 28.2822 16.7619 27.6394C16.6796 27.1137 16.7746 26.7432 17.2464 25.76C17.7341 24.7435 17.8544 24.3112 17.9368 23.2868C17.989 22.6234 18.0634 22.3621 18.2534 22.1531C18.4529 21.9347 18.6334 21.8602 19.1258 21.7937C19.9302 21.6829 20.4432 21.4771 20.8643 21.0907C21.0322 20.9509 21.1676 20.7763 21.2611 20.5788C21.3546 20.3814 21.404 20.166 21.4058 19.9476L21.4248 19.5802L21.219 19.3427C20.4828 18.4846 13.3388 12.3333 13.2928 12.3333C13.2833 12.3333 13.5256 12.6373 13.8328 13.0078ZM15.5443 30.2392C15.625 30.0971 15.649 29.9299 15.6118 29.7708C15.5745 29.6117 15.4786 29.4726 15.3433 29.3811C15.0788 29.2069 14.6688 29.2892 14.6688 29.5156C14.6666 29.5832 14.7089 29.6381 14.7954 29.6803C14.9411 29.7563 14.9522 29.8402 14.8366 30.0128C14.7194 30.187 14.7289 30.3406 14.8635 30.4451C15.0788 30.6129 15.386 30.5211 15.5443 30.2392ZM21.9315 21.9869C21.5547 22.1025 21.1873 22.4999 21.0733 22.9179C21.0037 23.1728 21.0433 23.6193 21.1478 23.7571C21.3156 23.9803 21.4771 24.0389 21.9173 24.0357C22.777 24.0294 23.5259 23.6637 23.6114 23.2045C23.6843 22.8277 23.3549 22.3067 22.9021 22.0787C22.5946 21.9537 22.257 21.9218 21.9315 21.9869ZM22.9385 22.7691C23.0699 22.5822 23.0129 22.3796 22.7865 22.2418C22.3574 21.9806 21.7067 22.1975 21.7067 22.6012C21.7067 22.8023 22.0455 23.0208 22.3558 23.0208C22.5633 23.0208 22.8467 22.8973 22.9385 22.7691Z" fill="white"/>
</g>
</svg>
